<?xml version="1.0" encoding="UTF-8"?><svg xmlns="http://www.w3.org/2000/svg" xmlns:xlink="http://www.w3.org/1999/xlink" viewBox="0 0 778.96 976.12"><defs><style>.cls-1{fill:url(#linear-gradient-2);}.cls-2{fill:url(#linear-gradient-6);}.cls-3{fill:url(#linear-gradient-5);}.cls-4{fill:url(#linear-gradient-7);}.cls-5{fill:url(#linear-gradient-3);}.cls-6{fill:url(#linear-gradient);}.cls-7{fill:#ef8e3f;}.cls-8{fill:url(#linear-gradient-4);}.cls-9{fill:#fa800d;}</style><linearGradient id="linear-gradient" x1="394.34" y1="371.15" x2="398.11" y2="462.32" gradientUnits="userSpaceOnUse"><stop offset="0" stop-color="#ffa455"/><stop offset=".13" stop-color="#f89947"/><stop offset=".49" stop-color="#e88128"/><stop offset=".79" stop-color="#de7314"/><stop offset="1" stop-color="#db6e0e"/></linearGradient><linearGradient id="linear-gradient-2" x1="689.22" y1="421.79" x2="731.65" y2="421.79" gradientUnits="userSpaceOnUse"><stop offset="0" stop-color="#3f4bf5"/><stop offset="1" stop-color="#7bf6fb"/></linearGradient><linearGradient id="linear-gradient-3" x1="681.63" y1="419.41" x2="686.8" y2="512.13" gradientUnits="userSpaceOnUse"><stop offset="0" stop-color="#ef8e3f"/><stop offset=".38" stop-color="#e47c24"/><stop offset=".74" stop-color="#dd7113"/><stop offset="1" stop-color="#db6e0e"/></linearGradient><linearGradient id="linear-gradient-4" x1="702.94" y1="320.66" x2="732.25" y2="503.26" gradientUnits="userSpaceOnUse"><stop offset="0" stop-color="#ffa455"/><stop offset=".46" stop-color="#fca051"/><stop offset=".8" stop-color="#f59748"/><stop offset="1" stop-color="#ef8e3f"/></linearGradient><linearGradient id="linear-gradient-5" x1="606.57" y1="687.28" x2="562.69" y2="883.72" gradientUnits="userSpaceOnUse"><stop offset="0" stop-color="#ffa455"/><stop offset=".04" stop-color="#f89a49"/><stop offset=".12" stop-color="#ed8a33"/><stop offset=".22" stop-color="#e57d22"/><stop offset=".34" stop-color="#df7416"/><stop offset=".52" stop-color="#db6f0f"/><stop offset="1" stop-color="#db6e0e"/></linearGradient><linearGradient id="linear-gradient-6" x1="0" y1="486.32" x2="229.74" y2="486.32" gradientUnits="userSpaceOnUse"><stop offset="0" stop-color="#ffa455"/><stop offset=".2" stop-color="#fb9e4f"/><stop offset="1" stop-color="#ef8e3f"/></linearGradient><linearGradient id="linear-gradient-7" x1="194.76" y1="49.53" x2="390.47" y2="416.92" gradientUnits="userSpaceOnUse"><stop offset="0" stop-color="#ffa455"/><stop offset=".21" stop-color="#fb9e4d"/><stop offset=".53" stop-color="#f08e38"/><stop offset=".91" stop-color="#df7416"/><stop offset="1" stop-color="#db6e0e"/></linearGradient></defs><g id="Layer_2"><circle class="cls-6" cx="395.68" cy="403.59" r="45.62"/><polygon class="cls-1" points="689.22 308.58 700.8 432.14 710.44 535.01 731.65 535.01 689.22 308.58"/><path class="cls-5" d="m638.78,471.71l71.65,63.3h21.22s4.52-173.57-42.43-226.43l-50.43,163.13Z"/><path class="cls-8" d="m689.22,308.58l8.7-26.78c42.63,76.1,60.9,178.97,60.87,292.17l-48.35-38.96h21.22c-2.4-83.9-15.28-156.43-42.43-226.43Z"/><path class="cls-3" d="m559.48,623.01c42.78,65.74,106.75,128.5,147.65,153.91-62.61,125.22-185.22,188.35-284.87,195.65,120.17-55.13,238.96-197.22,238.96-197.22-3.5,10.1-98.69-75.46-111.13-148.7l9.39-3.65Z"/><path class="cls-2" d="m171.31,915.71c-25.56-62.55-40.83-137.36-48.52-221.22-16.12,16.03-31.74,34.08-46.96,53.74,10.59-49.11,25.61-93.82,47.74-131.48,1.3-196.7,63.54-396.67,106.17-559.83C-10.78,245.27-111.12,733.59,171.31,915.71Z"/><path class="cls-4" d="m229.74,56.93C370.65-48.99,513.57.41,617.92,143.01c-166.96,107.48-369.39,250.43-494.35,473.74-4.43-183.65,75.31-444.47,106.17-559.83Z"/><path class="cls-7" d="m122.78,694.49c5.56,84.69,20.43,159.77,48.52,221.22,75.96,50.35,159.71,68.91,250.96,56.87,116.7-50.09,228-119.65,238.96-197.22-48.3-29.53-85.4-79-111.13-148.7-109.45,58.05-229.93,118.39-376.7,184.17l-2.09-5.22c147.13-117.91,253.22-268.52,226.78-280-36.17-27.83-222.64,110.16-275.3,168.87Z"/></g><g id="Layer_3"><ellipse class="cls-9" cx="468.64" cy="114.45" rx="92.14" ry="40.04"/></g></svg>