<?xml version="1.0" encoding="UTF-8"?><svg xmlns="http://www.w3.org/2000/svg" xmlns:xlink="http://www.w3.org/1999/xlink" viewBox="0 0 1050 1050"><defs><style>.cls-1{fill:url(#linear-gradient-2);}.cls-2{fill:url(#linear-gradient-6);}.cls-3{fill:url(#linear-gradient-5);}.cls-4{fill:url(#linear-gradient-7);}.cls-5{fill:url(#linear-gradient-9);}.cls-6{fill:url(#linear-gradient-3);}.cls-7{fill:url(#linear-gradient);}.cls-8{fill:url(#linear-gradient-4);}.cls-9{fill:url(#linear-gradient-8);}</style><linearGradient id="linear-gradient" x1="529.86" y1="408.09" x2="533.63" y2="499.26" gradientUnits="userSpaceOnUse"><stop offset="0" stop-color="#5799f7"/><stop offset=".19" stop-color="#4f83f7"/><stop offset=".52" stop-color="#4364f7"/><stop offset=".81" stop-color="#3c50f7"/><stop offset="1" stop-color="#3a4af7"/></linearGradient><linearGradient id="linear-gradient-2" x1="824.74" y1="458.73" x2="867.17" y2="458.73" gradientUnits="userSpaceOnUse"><stop offset="0" stop-color="#3f4bf5"/><stop offset="1" stop-color="#7bf6fb"/></linearGradient><linearGradient id="linear-gradient-3" x1="817.16" y1="456.35" x2="822.32" y2="549.07" gradientUnits="userSpaceOnUse"><stop offset="0" stop-color="#3a9fff"/><stop offset=".15" stop-color="#3a90ff"/><stop offset=".48" stop-color="#3a74ff"/><stop offset=".78" stop-color="#3a63ff"/><stop offset="1" stop-color="#3a5eff"/></linearGradient><linearGradient id="linear-gradient-4" x1="838.46" y1="357.6" x2="867.77" y2="540.2" gradientUnits="userSpaceOnUse"><stop offset="0" stop-color="#49bdff"/><stop offset=".26" stop-color="#48b9ff"/><stop offset=".46" stop-color="#48b0ff"/><stop offset=".64" stop-color="#489fff"/><stop offset=".81" stop-color="#4888ff"/><stop offset=".97" stop-color="#486bff"/><stop offset="1" stop-color="#4865ff"/></linearGradient><linearGradient id="linear-gradient-5" x1="742.09" y1="724.22" x2="698.22" y2="920.66" gradientUnits="userSpaceOnUse"><stop offset="0" stop-color="#60b3f9"/><stop offset="0" stop-color="#5fb2f9"/><stop offset=".07" stop-color="#5898fa"/><stop offset=".15" stop-color="#5282fc"/><stop offset=".25" stop-color="#4e71fd"/><stop offset=".37" stop-color="#4b65fe"/><stop offset=".54" stop-color="#495efe"/><stop offset="1" stop-color="#495dff"/></linearGradient><linearGradient id="linear-gradient-6" x1="134.11" y1="196.57" x2="336.69" y2="569.68" gradientUnits="userSpaceOnUse"><stop offset="0" stop-color="#39fcff"/><stop offset=".28" stop-color="#35beff"/><stop offset=".62" stop-color="#3178ff"/><stop offset=".87" stop-color="#2e4bff"/><stop offset="1" stop-color="#2e3bff"/></linearGradient><linearGradient id="linear-gradient-7" x1="330.29" y1="86.47" x2="525.99" y2="453.86" gradientUnits="userSpaceOnUse"><stop offset="0" stop-color="#39fcff"/><stop offset=".13" stop-color="#39f4ff"/><stop offset=".32" stop-color="#39dfff"/><stop offset=".55" stop-color="#39bdff"/><stop offset=".81" stop-color="#398eff"/><stop offset="1" stop-color="#3a69ff"/></linearGradient><linearGradient id="linear-gradient-8" x1="523.18" y1="648.03" x2="532.78" y2="921.92" gradientUnits="userSpaceOnUse"><stop offset="0" stop-color="#3970ff"/><stop offset=".01" stop-color="#396ffe"/><stop offset=".35" stop-color="#395afa"/><stop offset=".68" stop-color="#394ef7"/><stop offset="1" stop-color="#3a4af7"/></linearGradient><linearGradient id="linear-gradient-9" x1="601.4" y1="66.32" x2="607.39" y2="250.51" gradientUnits="userSpaceOnUse"><stop offset="0" stop-color="#48f2ff"/><stop offset=".21" stop-color="#42e8ff"/><stop offset=".61" stop-color="#3bdcff"/><stop offset="1" stop-color="#39d8ff"/></linearGradient></defs><g id="Layer_2"><circle class="cls-7" cx="531.2" cy="440.53" r="45.62"/><polygon class="cls-1" points="824.74 345.52 836.32 469.08 845.96 571.95 867.17 571.95 824.74 345.52"/><path class="cls-6" d="m774.31,508.65l71.65,63.3h21.22s4.52-173.57-42.43-226.43l-50.43,163.13Z"/><path class="cls-8" d="m824.74,345.52l8.7-26.78c42.63,76.1,60.9,178.97,60.87,292.17l-48.35-38.96h21.22c-2.4-83.9-15.28-156.43-42.43-226.43Z"/><path class="cls-3" d="m695,659.95c42.78,65.74,106.75,128.5,147.65,153.91-62.61,125.22-185.22,188.35-284.87,195.65,120.17-55.13,238.96-197.22,238.96-197.22-3.5,10.1-98.69-75.46-111.13-148.7l9.39-3.65Z"/><path class="cls-2" d="m306.83,952.65c-25.56-62.55-40.83-137.36-48.52-221.22-16.12,16.03-31.74,34.08-46.96,53.74,10.59-49.11,25.61-93.82,47.74-131.48,1.3-196.7,63.54-396.67,106.17-559.83C124.74,282.21,24.4,770.53,306.83,952.65Z"/><path class="cls-4" d="m365.26,93.86c140.91-105.91,283.83-56.52,388.17,86.09-166.96,107.48-369.39,250.43-494.35,473.74-4.43-183.65,75.31-444.47,106.17-559.83Z"/><path class="cls-9" d="m258.31,731.43c5.56,84.69,20.43,159.77,48.52,221.22,75.96,50.35,159.71,68.91,250.96,56.87,116.7-50.09,228-119.65,238.96-197.22-48.3-29.53-85.4-79-111.13-148.7-109.45,58.05-229.93,118.39-376.7,184.17l-2.09-5.22c147.13-117.91,253.22-268.52,226.78-280-36.17-27.83-222.64,110.16-275.3,168.87Z"/></g><g id="Layer_3"><ellipse class="cls-5" cx="604.16" cy="151.39" rx="92.14" ry="40.04"/></g></svg>