<?xml version="1.0" encoding="UTF-8"?><svg xmlns="http://www.w3.org/2000/svg" xmlns:xlink="http://www.w3.org/1999/xlink" viewBox="0 0 778.96 976.12"><defs><style>.l{fill:url(#h);}.m{fill:url(#i);}.n{fill:url(#f);}.o{fill:url(#g);}.p{fill:url(#e);}.q{fill:url(#d);}.r{fill:url(#b);}.s{fill:url(#c);}.t{fill:url(#k);}</style><linearGradient id="b" x1="394.34" y1="371.15" x2="398.11" y2="462.32" gradientUnits="userSpaceOnUse"><stop offset="0" stop-color="#5799f7"/><stop offset=".19" stop-color="#4f83f7"/><stop offset=".52" stop-color="#4364f7"/><stop offset=".81" stop-color="#3c50f7"/><stop offset="1" stop-color="#3a4af7"/></linearGradient><linearGradient id="c" x1="689.22" y1="421.79" x2="731.65" y2="421.79" gradientUnits="userSpaceOnUse"><stop offset="0" stop-color="#3f4bf5"/><stop offset="1" stop-color="#7bf6fb"/></linearGradient><linearGradient id="d" x1="680.78" y1="419.46" x2="685.95" y2="512.18" gradientUnits="userSpaceOnUse"><stop offset="0" stop-color="#3a9fff"/><stop offset=".15" stop-color="#3a90ff"/><stop offset=".48" stop-color="#3a74ff"/><stop offset=".78" stop-color="#3a63ff"/><stop offset="1" stop-color="#3a5eff"/></linearGradient><linearGradient id="e" x1="702.94" y1="320.66" x2="732.25" y2="503.26" gradientUnits="userSpaceOnUse"><stop offset="0" stop-color="#49bdff"/><stop offset=".26" stop-color="#48b9ff"/><stop offset=".46" stop-color="#48b0ff"/><stop offset=".64" stop-color="#489fff"/><stop offset=".81" stop-color="#4888ff"/><stop offset=".97" stop-color="#486bff"/><stop offset="1" stop-color="#4865ff"/></linearGradient><linearGradient id="f" x1="606.57" y1="687.28" x2="562.69" y2="883.72" gradientUnits="userSpaceOnUse"><stop offset="0" stop-color="#60b3f9"/><stop offset="0" stop-color="#5fb2f9"/><stop offset=".07" stop-color="#5898fa"/><stop offset=".15" stop-color="#5282fc"/><stop offset=".25" stop-color="#4e71fd"/><stop offset=".37" stop-color="#4b65fe"/><stop offset=".54" stop-color="#495efe"/><stop offset="1" stop-color="#495dff"/></linearGradient><linearGradient id="g" x1="-1.41" y1="159.63" x2="201.17" y2="532.74" gradientUnits="userSpaceOnUse"><stop offset="0" stop-color="#39fcff"/><stop offset=".28" stop-color="#35beff"/><stop offset=".62" stop-color="#3178ff"/><stop offset=".87" stop-color="#2e4bff"/><stop offset="1" stop-color="#2e3bff"/></linearGradient><linearGradient id="h" x1="194.76" y1="49.53" x2="390.47" y2="416.92" gradientUnits="userSpaceOnUse"><stop offset="0" stop-color="#39fcff"/><stop offset=".13" stop-color="#39f4ff"/><stop offset=".32" stop-color="#39dfff"/><stop offset=".55" stop-color="#39bdff"/><stop offset=".81" stop-color="#398eff"/><stop offset="1" stop-color="#3a69ff"/></linearGradient><linearGradient id="i" x1="387.66" y1="611.1" x2="397.26" y2="884.98" gradientUnits="userSpaceOnUse"><stop offset="0" stop-color="#3970ff"/><stop offset=".01" stop-color="#396ffe"/><stop offset=".35" stop-color="#395afa"/><stop offset=".68" stop-color="#394ef7"/><stop offset="1" stop-color="#3a4af7"/></linearGradient><linearGradient id="k" x1="465.88" y1="29.39" x2="471.87" y2="213.57" gradientUnits="userSpaceOnUse"><stop offset="0" stop-color="#48f2ff"/><stop offset=".21" stop-color="#42e8ff"/><stop offset=".61" stop-color="#3bdcff"/><stop offset="1" stop-color="#39d8ff"/></linearGradient></defs><g id="a"><circle class="r" cx="395.68" cy="403.59" r="45.62"/><polygon class="s" points="689.22 308.58 700.8 432.14 710.44 535.01 731.65 535.01 689.22 308.58"/><path class="q" d="m638.78,471.71l71.65,63.3h21.22c-1.66-78.17-14.66-155.69-42.43-226.43l-50.43,163.13Z"/><path class="p" d="m689.22,308.58l8.7-26.78c42.63,76.1,60.9,178.97,60.87,292.17l-48.35-38.96h21.22c-2.4-83.9-15.28-156.43-42.43-226.43Z"/><path class="n" d="m559.48,623.01c42.78,65.74,106.75,128.5,147.65,153.91-62.61,125.22-185.22,188.35-284.87,195.65,122.92-52.13,230.99-129.35,238.96-197.22-54.06-33.34-93.39-87.13-111.13-148.7l9.39-3.65Z"/><path class="o" d="m171.31,915.71c-25.56-62.55-40.83-137.36-48.52-221.22-16.12,16.03-31.74,34.08-46.96,53.74,10.59-49.11,25.61-93.82,47.74-131.48,1.3-196.7,63.54-396.67,106.17-559.83C-10.78,245.27-111.12,733.59,171.31,915.71Z"/><path class="l" d="m229.74,56.93C370.65-48.99,513.57.41,617.92,143.01c-166.96,107.48-369.39,250.43-494.35,473.74-4.43-183.65,75.31-444.47,106.17-559.83Z"/><path class="m" d="m122.78,694.49c5.56,84.69,20.43,159.77,48.52,221.22,75.96,50.35,159.71,68.91,250.96,56.87,116.7-50.09,228-119.65,238.96-197.22-48.3-29.53-85.4-79-111.13-148.7-109.45,58.05-229.93,118.39-376.7,184.17l-2.09-5.22c147.13-117.91,253.22-268.52,226.78-280-36.17-27.83-222.64,110.16-275.3,168.87Z"/></g><g id="j"><ellipse class="t" cx="468.64" cy="114.45" rx="92.14" ry="40.04"/></g></svg>