<?xml version="1.0" standalone="no"?>
<!DOCTYPE svg PUBLIC "-//W3C//DTD SVG 20010904//EN"
 "http://www.w3.org/TR/2001/REC-SVG-20010904/DTD/svg10.dtd">
<svg version="1.0" xmlns="http://www.w3.org/2000/svg"
 width="700.000000pt" height="700.000000pt" viewBox="0 0 700.000000 700.000000"
 preserveAspectRatio="xMidYMid meet">
<metadata>
Created by potrace 1.14, written by Peter Selinger 2001-2017
</metadata>
<g transform="translate(0.000000,700.000000) scale(0.100000,-0.100000)"
fill="#000000" stroke="none">
<path d="M3428 6755 c-2 -1 -45 -5 -97 -9 -52 -4 -97 -8 -100 -10 -3 -2 -22
-7 -41 -10 -154 -25 -359 -104 -540 -209 -77 -45 -218 -141 -230 -157 -3 -3
-16 -13 -29 -22 -109 -75 -394 -369 -531 -548 -19 -25 -37 -47 -41 -50 -13
-11 -200 -291 -256 -385 -104 -173 -194 -355 -309 -620 -18 -43 -84 -223 -84
-231 0 -3 -7 -20 -14 -37 -24 -52 -120 -387 -140 -487 -3 -14 -16 -81 -30
-150 -27 -131 -27 -134 -51 -324 -42 -334 -40 -734 6 -1031 118 -773 465
-1375 1020 -1768 37 -26 71 -47 77 -47 6 0 12 -4 14 -9 4 -12 179 -117 268
-160 206 -101 486 -191 670 -215 19 -2 58 -7 85 -11 28 -3 66 -8 85 -11 42 -6
359 -5 415 1 22 2 67 7 100 10 137 13 164 17 245 31 686 121 1325 585 1659
1204 l41 76 -33 19 c-137 81 -452 372 -643 595 -88 104 -259 326 -289 378 -11
17 -22 32 -26 32 -7 0 -109 -52 -479 -244 -207 -107 -973 -490 -1120 -559 -52
-24 -140 -66 -195 -92 -55 -26 -188 -88 -295 -137 -107 -50 -228 -105 -268
-124 -41 -19 -76 -34 -79 -34 -3 0 -32 -14 -65 -30 -58 -30 -78 -31 -78 -6 0
6 42 47 92 89 51 42 109 91 128 108 161 142 218 197 385 364 215 215 250 252
394 420 333 388 566 766 530 862 -58 156 -499 -25 -1089 -446 -58 -41 -107
-78 -110 -81 -3 -3 -39 -31 -81 -62 -77 -57 -279 -221 -354 -287 -99 -87 -339
-336 -431 -446 -78 -94 -88 -105 -97 -105 -4 0 -5 5 -2 10 4 6 9 23 11 38 16
91 92 341 141 465 86 219 190 409 389 712 43 66 81 125 83 130 2 6 7 12 10 15
3 3 35 46 71 95 60 84 209 278 257 335 11 14 51 61 88 105 112 133 241 271
420 450 152 152 219 216 351 335 83 75 324 278 414 350 52 41 97 77 100 81 21
25 552 409 760 550 69 46 130 88 135 92 19 15 360 237 370 240 18 6 -140 204
-274 342 -349 361 -758 581 -1139 610 -107 9 -171 12 -174 10z"/>
<path d="M5545 4843 c-11 -37 -7 -26 -70 -223 -31 -96 -58 -182 -60 -190 -4
-19 -220 -719 -240 -777 l-14 -42 127 -112 c70 -62 132 -117 137 -123 6 -6 39
-36 75 -66 36 -30 67 -58 70 -61 6 -8 156 -132 288 -237 116 -95 104 -101 102
58 -2 128 -17 390 -25 444 -2 12 -6 52 -10 90 -4 38 -8 79 -10 90 -2 12 -6 41
-9 66 -3 25 -11 72 -17 105 -6 33 -12 72 -15 87 -10 72 -78 340 -109 433 -57
172 -192 485 -209 485 -2 0 -7 -12 -11 -27z"/>
<path d="M3470 4358 c-63 -14 -143 -71 -180 -126 -143 -215 30 -498 286 -468
146 17 260 138 268 283 4 70 -28 159 -76 217 -66 78 -193 119 -298 94z"/>
</g>
</svg>
