<?xml version="1.0" standalone="no"?>
<!DOCTYPE svg PUBLIC "-//W3C//DTD SVG 20010904//EN"
 "http://www.w3.org/TR/2001/REC-SVG-20010904/DTD/svg10.dtd">
<svg version="1.0" xmlns="http://www.w3.org/2000/svg"
 width="976.000000pt" height="976.000000pt" viewBox="0 0 976.000000 976.000000"
 preserveAspectRatio="xMidYMid meet">
<metadata>
Created by potrace 1.14, written by Peter Selinger 2001-2017
</metadata>
<g transform="translate(0.000000,976.000000) scale(0.100000,-0.100000)"
fill="#000000" stroke="none">
<path d="M4658 9755 c-1 -1 -30 -5 -63 -9 -33 -3 -71 -8 -85 -11 -13 -3 -42
-7 -65 -10 -22 -4 -58 -11 -80 -17 -22 -6 -53 -12 -69 -15 -48 -8 -258 -80
-363 -124 -152 -66 -432 -218 -441 -241 -2 -4 -8 -8 -14 -8 -8 0 -93 -55 -108
-70 -3 -3 -23 -18 -46 -33 -22 -15 -65 -48 -95 -73 -30 -25 -76 -64 -104 -87
-115 -97 -321 -299 -441 -433 -38 -43 -78 -88 -89 -99 -11 -12 -47 -55 -80
-96 -32 -41 -63 -75 -67 -77 -4 -2 -8 -9 -8 -16 0 -6 -8 -19 -17 -28 -20 -17
-38 -40 -112 -143 -27 -38 -55 -75 -61 -82 -5 -7 -10 -17 -10 -23 0 -5 -4 -10
-8 -10 -5 0 -17 -16 -28 -35 -10 -19 -22 -35 -26 -35 -5 0 -8 -7 -8 -15 0 -8
-4 -15 -9 -15 -5 0 -11 -8 -15 -17 -5 -18 -26 -53 -36 -63 -3 -3 -32 -48 -64
-100 -32 -52 -66 -106 -75 -120 -8 -14 -24 -41 -34 -60 -24 -43 -57 -102 -87
-155 -57 -100 -206 -407 -269 -555 -18 -41 -36 -84 -41 -95 -19 -41 -112 -279
-116 -295 0 -3 -6 -18 -13 -35 -7 -16 -14 -35 -15 -42 -1 -7 -5 -16 -9 -19 -4
-4 -7 -13 -7 -20 0 -7 -4 -23 -9 -36 -5 -13 -9 -26 -10 -31 0 -4 -7 -23 -15
-42 -8 -19 -13 -35 -10 -35 3 0 0 -10 -7 -21 -19 -37 -151 -507 -163 -584 -2
-11 -11 -51 -20 -90 -8 -38 -17 -81 -20 -95 -2 -14 -7 -36 -10 -50 -7 -32 -15
-76 -21 -120 -3 -19 -7 -42 -10 -50 -5 -16 -10 -51 -20 -120 -4 -25 -9 -61
-12 -80 -3 -19 -7 -48 -9 -65 -2 -16 -5 -48 -8 -70 -14 -113 -19 -167 -32
-335 -10 -117 -10 -706 -1 -815 13 -156 16 -190 22 -225 3 -19 7 -55 10 -80 2
-25 6 -55 9 -67 3 -12 7 -48 11 -79 3 -32 8 -60 10 -64 2 -3 6 -24 9 -46 3
-21 12 -73 21 -114 18 -82 18 -82 35 -155 25 -108 28 -120 30 -120 1 0 3 -8 5
-18 3 -17 40 -146 51 -177 3 -8 6 -17 6 -20 1 -3 14 -41 30 -85 17 -44 34 -91
38 -105 42 -127 235 -533 276 -581 8 -8 14 -19 14 -23 0 -5 13 -28 30 -53 16
-24 30 -46 30 -48 0 -8 184 -269 200 -285 3 -3 36 -43 74 -90 73 -90 331 -351
405 -410 24 -19 48 -40 55 -45 62 -56 340 -255 356 -255 6 0 10 -3 10 -8 0 -4
9 -12 19 -17 11 -6 71 -40 133 -76 99 -58 274 -152 288 -154 3 -1 30 -13 60
-27 96 -46 390 -156 450 -169 3 -1 10 -3 15 -5 18 -5 221 -55 246 -59 13 -3
35 -7 49 -10 58 -11 77 -14 113 -20 20 -3 52 -7 70 -10 150 -23 274 -30 507
-29 240 0 390 6 390 14 0 3 12 5 28 6 15 0 56 3 92 7 36 4 87 10 113 12 85 9
132 16 212 31 17 3 44 7 60 10 17 3 57 12 90 21 33 8 67 16 75 18 36 8 260 76
305 93 145 55 272 107 286 119 8 7 20 13 26 13 22 0 400 206 423 230 3 3 39
27 80 55 41 27 77 52 80 55 3 3 18 14 33 23 30 19 59 42 86 67 9 8 35 28 56
44 22 17 50 40 62 53 12 13 25 23 28 23 14 0 263 249 345 345 24 28 46 52 49
55 12 10 196 252 202 265 2 6 29 49 60 96 59 89 164 270 162 279 -1 3 2 10 6
15 21 27 20 46 -2 54 -17 7 -108 71 -182 128 -49 38 -160 128 -182 148 -122
110 -215 198 -323 307 -127 128 -147 150 -255 274 -33 38 -69 78 -80 90 -11
12 -24 28 -30 36 -5 8 -53 69 -105 134 -95 117 -224 294 -269 367 -12 20 -23
37 -24 37 -7 0 -114 -43 -122 -49 -5 -5 -82 -45 -170 -91 -296 -154 -330 -172
-342 -182 -7 -6 -13 -8 -13 -4 0 3 -19 -5 -42 -19 -24 -13 -90 -48 -148 -77
-58 -29 -107 -55 -110 -58 -10 -10 -136 -70 -147 -70 -6 0 -13 -3 -15 -7 -1
-5 -70 -41 -153 -82 -82 -41 -151 -78 -153 -83 -2 -4 -9 -8 -16 -8 -6 0 -147
-67 -314 -150 -166 -82 -306 -150 -312 -150 -5 0 -10 -5 -10 -10 0 -6 -3 -9
-7 -8 -8 2 -25 -6 -328 -152 -93 -45 -201 -97 -240 -115 -38 -18 -109 -51
-156 -74 -47 -22 -91 -41 -98 -41 -6 0 -11 -5 -11 -12 0 -6 -3 -9 -6 -6 -3 4
-36 -9 -72 -27 -37 -18 -89 -43 -117 -55 -27 -12 -86 -39 -130 -60 -44 -21
-105 -49 -135 -63 -30 -13 -84 -38 -120 -55 -84 -38 -134 -61 -250 -112 -52
-24 -100 -47 -107 -52 -8 -7 -17 0 -28 21 -8 17 -12 31 -7 31 4 0 22 12 39 28
17 15 50 43 74 63 133 111 300 255 363 314 18 17 70 64 116 105 106 94 520
508 620 619 41 46 91 100 110 120 19 20 62 68 95 106 33 38 65 76 72 83 7 7
29 34 50 60 21 26 43 52 49 57 6 6 28 32 50 60 21 27 49 61 62 75 12 14 22 28
22 32 0 4 8 15 18 25 24 23 176 223 191 251 6 11 17 26 24 34 11 12 32 42 62
89 38 60 93 147 112 174 43 67 122 227 147 299 45 130 34 180 -48 220 -36 17
-172 16 -246 -3 -216 -56 -613 -259 -985 -504 -128 -85 -117 -77 -208 -142
-42 -30 -82 -55 -87 -55 -6 0 -10 -4 -10 -8 0 -4 -13 -16 -30 -25 -16 -10 -35
-23 -42 -30 -7 -7 -36 -28 -63 -46 -28 -19 -52 -38 -55 -41 -3 -3 -30 -23 -60
-45 -30 -22 -57 -42 -60 -45 -3 -3 -34 -27 -70 -55 -36 -27 -66 -53 -68 -57
-2 -5 -8 -8 -13 -8 -6 0 -21 -10 -34 -23 -13 -12 -30 -27 -37 -32 -28 -22
-225 -185 -253 -210 -16 -14 -43 -38 -60 -52 -84 -73 -103 -92 -97 -97 3 -3 0
-6 -7 -6 -27 0 -437 -430 -578 -605 -52 -65 -59 -74 -98 -120 -20 -23 -25 -25
-21 -10 11 43 48 201 52 220 2 11 22 81 44 155 22 74 42 142 44 150 2 8 14 44
27 80 12 36 30 88 39 115 10 28 29 76 43 108 15 31 27 61 28 65 1 4 6 18 12
32 6 14 11 27 12 30 3 16 101 210 121 242 13 21 22 38 20 38 -3 0 17 36 44 81
28 44 50 82 50 84 0 3 25 45 55 95 30 50 55 95 55 100 0 6 3 10 8 10 4 0 18
20 32 45 14 25 28 45 32 45 5 0 8 5 8 11 0 10 155 255 170 269 3 3 29 41 59
85 30 44 79 114 109 155 31 41 67 91 81 110 28 39 25 34 84 110 23 30 60 79
82 108 21 28 43 52 47 52 4 0 8 6 8 14 0 8 3 16 8 18 4 2 36 39 72 83 74 90
75 92 235 275 301 345 702 748 1068 1072 39 35 83 74 98 88 15 14 45 39 66 57
21 18 52 44 68 58 17 14 47 40 68 58 21 18 48 40 60 51 12 10 76 61 142 115
66 53 126 102 134 109 15 15 163 130 195 152 11 8 28 23 37 32 9 10 20 18 24
18 6 0 41 26 96 73 8 7 47 36 85 63 72 51 97 70 119 92 8 6 16 12 20 12 8 0
87 61 97 75 4 6 8 6 8 2 0 -5 7 -1 16 7 8 9 37 30 62 48 26 18 52 36 57 40 36
30 267 188 274 188 5 0 11 3 13 8 5 11 75 62 86 62 6 0 12 4 14 8 2 5 43 36
93 68 49 32 99 67 109 77 11 9 24 17 28 17 9 0 62 36 85 57 7 6 22 15 33 18
11 3 20 10 20 13 0 4 20 18 45 32 25 14 45 28 45 32 0 5 4 8 10 8 11 0 103 62
108 73 2 4 8 7 13 7 5 0 61 34 125 75 l115 75 -59 78 c-33 42 -68 87 -78 99
-11 12 -29 35 -41 50 -12 15 -34 42 -49 58 -14 17 -40 47 -57 69 -18 21 -93
100 -167 175 -117 118 -179 176 -277 258 -12 10 -32 27 -45 38 -12 10 -61 47
-108 82 -47 34 -90 66 -95 71 -17 14 -262 162 -268 162 -3 0 -30 14 -59 31
-29 17 -53 31 -53 30 0 -1 -20 7 -45 18 -105 45 -126 54 -135 57 -15 5 -198
66 -215 72 -8 3 -17 6 -20 7 -11 3 -126 28 -140 31 -8 1 -24 4 -35 7 -11 3
-42 8 -70 12 -27 4 -61 9 -75 11 -28 6 -416 14 -422 9z"/>
<path d="M7956 6898 c-21 -58 -47 -140 -51 -158 -2 -8 -10 -33 -18 -55 -8 -22
-27 -80 -42 -130 -15 -49 -36 -117 -47 -150 -11 -33 -21 -69 -24 -80 -2 -11
-17 -60 -33 -110 -16 -49 -45 -144 -66 -210 -20 -66 -43 -139 -51 -163 -8 -23
-14 -47 -14 -52 0 -5 -5 -21 -12 -37 -6 -15 -13 -35 -14 -43 -2 -8 -24 -80
-49 -160 -26 -80 -48 -156 -51 -169 -3 -14 -8 -29 -12 -35 -3 -6 -7 -16 -8
-21 -1 -6 -18 -62 -37 -125 -45 -144 -51 -170 -41 -170 5 0 27 -17 49 -36 22
-20 66 -59 98 -88 32 -28 69 -60 81 -71 13 -11 38 -34 57 -50 19 -17 75 -66
124 -110 50 -44 103 -91 119 -105 16 -14 41 -36 55 -48 14 -13 48 -43 75 -65
26 -23 53 -46 60 -52 6 -5 58 -48 116 -95 58 -46 107 -88 108 -92 2 -5 8 -8
13 -8 5 0 17 -8 27 -17 10 -10 32 -29 50 -43 41 -31 87 -69 120 -97 14 -12 29
-20 34 -17 7 5 3 355 -7 504 -7 122 -17 255 -21 295 -2 22 -7 69 -10 105 -10
105 -21 209 -29 260 -6 39 -8 51 -25 160 -6 41 -14 86 -16 100 -6 27 -11 60
-18 102 -2 14 -7 34 -10 45 -5 18 -17 75 -20 103 -2 8 -5 24 -9 35 -3 11 -9
34 -12 50 -4 26 -25 113 -41 170 -3 11 -7 27 -9 35 -2 8 -4 15 -5 15 -1 0 -3
7 -5 15 -1 8 -13 49 -26 90 -12 41 -24 80 -25 85 -5 22 -43 132 -55 160 -7 17
-13 32 -14 35 -7 30 -29 87 -36 94 -5 6 -9 15 -9 22 0 6 -10 33 -22 60 -12 27
-21 52 -20 57 1 4 -2 7 -8 7 -6 0 -10 7 -10 15 0 9 -31 76 -69 151 l-69 135
-16 -43z"/>
<path d="M4869 6175 c-3 -2 -17 -6 -32 -9 -36 -6 -127 -48 -157 -72 -131 -103
-193 -237 -185 -400 8 -188 141 -352 331 -409 63 -19 188 -16 256 5 238 74
371 324 301 565 -28 99 -133 230 -213 267 -44 21 -91 40 -110 45 -22 6 -186
13 -191 8z"/>
</g>
</svg>
